<svg width="292" height="209" viewBox="0 0 292 209" fill="none" xmlns="http://www.w3.org/2000/svg">
<g clip-path="url(#clip0_55_2)" filter="url(#filter0_d_55_2)">
<path d="M21.1965 67.9301L77.3677 67.0719C80.0803 67.9301 81.4035 69.2503 81.4035 71.0987C81.4035 75.7196 79.4848 78.0301 75.7136 78.0301C68.7667 78.0301 61.4227 78.2281 53.6818 78.5582C53.2187 86.4797 53.0202 92.4869 53.0202 96.4477C53.0202 100.475 53.0202 103.049 53.0202 104.105L53.5495 152.691C53.5495 155.529 52.8217 157.18 51.3 157.642C50.1752 158.038 48.7859 158.17 47.1318 158.17C44.4192 158.17 42.9636 156.652 42.699 153.615C42.1697 146.486 41.8389 133.283 41.8389 113.809C41.8389 94.4013 42.1035 82.717 42.699 78.7562C40.7803 78.8222 37.8692 78.8882 34.098 78.8882C30.3268 78.8882 25.5631 78.9543 19.9394 78.8222C18.4838 78.8222 17.2929 78.3601 16.499 77.4359C15.6389 76.5118 15.2419 75.3895 15.2419 74.0693C15.2419 72.749 15.8374 71.4288 16.9621 70.1085C18.153 68.8543 19.5424 68.0621 21.1965 67.9301Z" fill="#EFF8FF" stroke="#EFF8FF" stroke-width="4.367" stroke-miterlimit="10"/>
<path d="M131.422 65.6856C137.906 65.6856 143.397 67.732 147.896 71.8909C156.762 79.8124 161.194 92.3549 161.194 109.452C161.194 126.55 156.299 140.016 146.507 149.786C141.412 154.671 135.524 157.378 128.908 157.84C120.108 157.84 113.293 154.869 108.397 148.862C103.502 142.855 99.9949 136.188 97.9439 128.728C95.8929 121.335 94.8343 114.139 94.8343 107.208C94.8343 95.3915 97.6793 85.6876 103.303 78.0301C109.191 69.7784 118.586 65.6856 131.422 65.6856ZM130.429 77.1719C118.057 77.1719 110.316 83.0471 107.273 94.7314C106.346 97.9 105.883 101.861 105.883 106.746C105.883 111.631 106.81 117.308 108.662 123.777C111.176 132.425 114.881 138.564 119.777 142.063C122.622 144.307 126.129 145.363 130.165 145.363C134.201 145.363 137.906 143.515 141.147 139.884C144.389 136.254 146.573 131.633 147.83 125.956C149.021 120.344 149.616 114.667 149.616 108.924C149.616 98.7582 148.161 90.9686 145.25 85.4235C142.338 79.9444 137.376 77.1719 130.429 77.1719Z" fill="#EFF8FF" stroke="#EFF8FF" stroke-width="4.367" stroke-miterlimit="10"/>
<path d="M209.36 68.0621L224.776 67.798C231.59 67.798 235.031 69.5804 235.031 73.2111C235.031 74.5314 234.832 75.3895 234.502 75.9176C234.105 76.4457 233.84 76.8418 233.641 77.1059C233.443 77.3699 233.112 77.634 232.517 77.766C231.392 78.1621 230.466 78.3601 229.738 78.4261C229.01 78.4921 228.481 78.5582 228.216 78.5582C227.224 78.7562 225.504 78.8882 223.056 78.9542C220.674 79.0203 217.167 79.0863 212.602 79.0863C208.037 79.0863 202.413 78.8882 195.731 78.5582V104.039H224.048C225.04 104.039 226.033 104.501 226.893 105.425C227.753 106.35 228.216 107.34 228.216 108.462C228.216 112.687 226.43 114.799 222.791 114.799H195.731L196.26 151.041C196.26 155.727 194.672 158.104 191.496 158.104C188.321 158.104 186.402 155.991 185.873 151.767C185.608 150.38 185.41 138.63 185.41 116.582C185.343 94.4673 185.277 81.7928 185.079 78.4921C181.638 78.8882 179.918 76.9078 179.918 72.683C179.918 71.5608 180.381 70.3725 181.308 68.9863C182.234 67.666 183.028 66.9399 183.756 66.8738C184.417 66.8078 185.343 66.7418 186.402 66.7418C187.461 66.7418 190.107 66.9399 194.209 67.2699C199.965 67.798 204.993 68.0621 209.36 68.0621Z" fill="#EFF8FF" stroke="#EFF8FF" stroke-width="4.367" stroke-miterlimit="10"/>
<path d="M262.62 69.5144C264.076 68.5902 265.664 68.1281 267.516 68.1281C269.369 68.1281 270.493 69.1843 270.957 71.2967C271.023 81.9909 271.221 98.032 271.486 119.288C271.486 132.293 271.089 143.317 270.361 152.361C270.163 153.747 269.303 155.001 267.781 156.058C266.259 157.114 264.737 157.642 263.15 157.642C260.569 157.642 259.246 156.322 259.246 153.615C260.172 144.373 260.635 132.953 260.635 119.288L259.775 72.815C260.305 71.5608 261.165 70.4386 262.62 69.5144Z" fill="#EFF8FF" stroke="#EFF8FF" stroke-width="4.367" stroke-miterlimit="10"/>
<path d="M137.707 119.816C135.193 121.995 132.613 123.051 130.032 123.051C127.452 123.051 125.07 122.061 122.887 120.014C120.704 117.968 119.645 115.261 119.645 111.895C119.645 108.528 120.307 106.02 121.63 104.501C122.953 102.983 125.732 102.257 130.098 102.257C137.773 102.257 141.611 105.425 141.611 111.763C141.544 114.997 140.287 117.638 137.707 119.816Z" fill="#EFF8FF"/>
<path d="M148.161 72.9471C149.087 70.3065 149.947 67.6 150.873 64.9595C151.138 64.2333 152.13 62.385 152.064 61.6588C152.196 61.4608 152.263 61.1967 152.395 60.9987C151.072 60.4046 150.609 60.4706 150.873 61.1967C150.476 61.5928 150.212 62.9791 149.815 63.5072C149.021 64.8275 148.094 66.0157 147.234 67.2039C145.58 69.5804 143.926 71.9569 142.206 74.3993C138.898 79.1523 146.705 83.6412 150.013 78.9543C154.38 72.749 166.024 60.0745 155.769 53.4732C145.25 46.7399 141.544 64.2333 139.361 70.5706C137.575 76.0497 146.308 78.3601 148.161 72.9471Z" fill="#EFF8FF"/>
<path d="M114.881 70.7026C113.161 69.6464 111.573 68.3922 110.118 67.0059C109.39 66.2797 108.596 65.4876 107.934 64.6954C107.802 64.4974 107.471 63.8373 107.339 63.7712C107.207 63.7712 105.023 66.5438 105.023 66.5438C105.089 66.8739 106.148 67.6 106.413 67.9301C107.008 68.6562 107.537 69.3824 108.067 70.1745C109.191 72.0229 109.985 73.8712 110.515 75.9837C111.97 81.5948 120.704 79.2183 119.182 73.6072C117.528 67.2039 110.912 54.3314 102.311 58.0281C97.4808 60.1405 97.6131 65.8176 100.392 69.5144C103.038 73.1451 106.611 76.1157 110.382 78.4922C115.212 81.5288 119.777 73.7392 114.881 70.7026Z" fill="#EFF8FF"/>
</g>
<defs>
<filter id="filter0_d_55_2" x="0" y="0" width="292" height="232" filterUnits="userSpaceOnUse" color-interpolation-filters="sRGB">
<feFlood flood-opacity="0" result="BackgroundImageFix"/>
<feColorMatrix in="SourceAlpha" type="matrix" values="0 0 0 0 0 0 0 0 0 0 0 0 0 0 0 0 0 0 127 0" result="hardAlpha"/>
<feOffset dx="3" dy="8"/>
<feGaussianBlur stdDeviation="7.5"/>
<feColorMatrix type="matrix" values="0 0 0 0 0.223381 0 0 0 0 0.194844 0 0 0 0 0.3625 0 0 0 0.25 0"/>
<feBlend mode="normal" in2="BackgroundImageFix" result="effect1_dropShadow_55_2"/>
<feBlend mode="normal" in="SourceGraphic" in2="effect1_dropShadow_55_2" result="shape"/>
</filter>
<clipPath id="clip0_55_2">
<rect width="262" height="202" fill="white" transform="translate(12 7)"/>
</clipPath>
</defs>
</svg>
