<svg width="23" height="24" viewBox="0 0 23 24" fill="none" xmlns="http://www.w3.org/2000/svg">
<path d="M20.5509 9.55083H14.428V3.4279C14.428 2.07526 13.3314 0.978729 11.9788 0.978729C10.6262 0.978729 9.52962 2.07526 9.52962 3.4279V9.55083H3.40669C2.05405 9.55083 0.95752 10.6474 0.95752 12C0.95752 13.3526 2.05405 14.4492 3.40669 14.4492H9.52962V20.5721C9.52962 21.9247 10.6262 23.0213 11.9788 23.0213C13.3314 23.0213 14.428 21.9247 14.428 20.5721V14.4492H20.5509C21.9035 14.4492 23.0001 13.3526 23.0001 12C23.0001 10.6474 21.9035 9.55083 20.5509 9.55083Z" fill="#FFEBA1"/>
</svg>
